<svg width="12" height="12" viewBox="0 0 12 12" fill="none" xmlns="http://www.w3.org/2000/svg">
<g clip-path="url(#clip0_21_360)">
<path d="M8.25 9.15527e-05C6.147 9.15527e-05 4.5 0.988592 4.5 2.25009V3.54359C4.2585 3.51509 4.0075 3.50009 3.75 3.50009C1.647 3.50009 0 4.48859 0 5.75009V9.75009C0 11.0116 1.647 12.0001 3.75 12.0001C5.4535 12.0001 6.858 11.3516 7.33 10.4346C7.629 10.4781 7.937 10.5001 8.25 10.5001C10.353 10.5001 12 9.51159 12 8.25009V2.25009C12 0.988592 10.353 9.15527e-05 8.25 9.15527e-05ZM11 6.25009C11 6.84009 9.824 7.50009 8.25 7.50009C7.994 7.50009 7.743 7.48259 7.5 7.44859V6.45659C7.745 6.48509 7.996 6.50009 8.25 6.50009C9.347 6.50009 10.32 6.23109 11 5.79459V6.25009ZM1 7.29459C1.68 7.73109 2.653 8.00009 3.75 8.00009C4.847 8.00009 5.82 7.73109 6.5 7.29459V7.75009C6.5 8.34009 5.324 9.00009 3.75 9.00009C2.176 9.00009 1 8.34009 1 7.75009V7.29459ZM11 4.25009C11 4.84009 9.824 5.50009 8.25 5.50009C7.9825 5.50009 7.72 5.48109 7.467 5.44409C7.3705 5.00059 7.067 4.60209 6.614 4.28259C7.106 4.42259 7.66 4.50009 8.25 4.50009C9.347 4.50009 10.32 4.23109 11 3.79459V4.25009ZM8.25 1.00009C9.824 1.00009 11 1.66009 11 2.25009C11 2.84009 9.824 3.50009 8.25 3.50009C6.676 3.50009 5.5 2.84009 5.5 2.25009C5.5 1.66009 6.676 1.00009 8.25 1.00009ZM3.75 4.50009C5.324 4.50009 6.5 5.16009 6.5 5.75009C6.5 6.34009 5.324 7.00009 3.75 7.00009C2.176 7.00009 1 6.34009 1 5.75009C1 5.16009 2.176 4.50009 3.75 4.50009ZM3.75 11.0001C2.176 11.0001 1 10.3401 1 9.75009V9.29459C1.68 9.73109 2.653 10.0001 3.75 10.0001C4.847 10.0001 5.82 9.73109 6.5 9.29459V9.75009C6.5 10.3401 5.324 11.0001 3.75 11.0001ZM8.25 9.50009C7.994 9.50009 7.743 9.48259 7.5 9.44859V8.45659C7.745 8.48509 7.996 8.50009 8.25 8.50009C9.347 8.50009 10.32 8.23109 11 7.79459V8.25009C11 8.84009 9.824 9.50009 8.25 9.50009Z" fill="#095F3C"/>
</g>
<defs>
<clipPath id="clip0_21_360">
<rect width="12" height="12" fill="white"/>
</clipPath>
</defs>
</svg>
